<svg width="57" height="16" viewBox="0 0 57 16" fill="none" xmlns="http://www.w3.org/2000/svg">
<g clip-path="url(#clip0_215_1445)">
<path fill-rule="evenodd" clip-rule="evenodd" d="M0 0.5H21V15.5H0V0.5Z" fill="url(#paint0_linear_215_1445)"/>
<path fill-rule="evenodd" clip-rule="evenodd" d="M0 0.5H21V1.5H0V0.5ZM0 2.5H21V3.5H0V2.5ZM0 4.5H21V5.5H0V4.5ZM0 6.5H21V7.5H0V6.5ZM0 8.5H21V9.5H0V8.5ZM0 10.5H21V11.5H0V10.5ZM0 12.5H21V13.5H0V12.5ZM0 14.5H21V15.5H0V14.5Z" fill="url(#paint1_linear_215_1445)"/>
<path fill-rule="evenodd" clip-rule="evenodd" d="M0 0.5H9V7.5H0V0.5Z" fill="url(#paint2_linear_215_1445)"/>
<path fill-rule="evenodd" clip-rule="evenodd" d="M1.5 2.5C1.36739 2.5 1.24021 2.44732 1.14645 2.35355C1.05268 2.25979 1 2.13261 1 2C1 1.86739 1.05268 1.74021 1.14645 1.64645C1.24021 1.55268 1.36739 1.5 1.5 1.5C1.63261 1.5 1.75979 1.55268 1.85355 1.64645C1.94732 1.74021 2 1.86739 2 2C2 2.13261 1.94732 2.25979 1.85355 2.35355C1.75979 2.44732 1.63261 2.5 1.5 2.5ZM3.5 2.5C3.36739 2.5 3.24021 2.44732 3.14645 2.35355C3.05268 2.25979 3 2.13261 3 2C3 1.86739 3.05268 1.74021 3.14645 1.64645C3.24021 1.55268 3.36739 1.5 3.5 1.5C3.63261 1.5 3.75979 1.55268 3.85355 1.64645C3.94732 1.74021 4 1.86739 4 2C4 2.13261 3.94732 2.25979 3.85355 2.35355C3.75979 2.44732 3.63261 2.5 3.5 2.5ZM5.5 2.5C5.36739 2.5 5.24021 2.44732 5.14645 2.35355C5.05268 2.25979 5 2.13261 5 2C5 1.86739 5.05268 1.74021 5.14645 1.64645C5.24021 1.55268 5.36739 1.5 5.5 1.5C5.63261 1.5 5.75979 1.55268 5.85355 1.64645C5.94732 1.74021 6 1.86739 6 2C6 2.13261 5.94732 2.25979 5.85355 2.35355C5.75979 2.44732 5.63261 2.5 5.5 2.5ZM7.5 2.5C7.36739 2.5 7.24021 2.44732 7.14645 2.35355C7.05268 2.25979 7 2.13261 7 2C7 1.86739 7.05268 1.74021 7.14645 1.64645C7.24021 1.55268 7.36739 1.5 7.5 1.5C7.63261 1.5 7.75979 1.55268 7.85355 1.64645C7.94732 1.74021 8 1.86739 8 2C8 2.13261 7.94732 2.25979 7.85355 2.35355C7.75979 2.44732 7.63261 2.5 7.5 2.5ZM2.5 3.5C2.36739 3.5 2.24021 3.44732 2.14645 3.35355C2.05268 3.25979 2 3.13261 2 3C2 2.86739 2.05268 2.74021 2.14645 2.64645C2.24021 2.55268 2.36739 2.5 2.5 2.5C2.63261 2.5 2.75979 2.55268 2.85355 2.64645C2.94732 2.74021 3 2.86739 3 3C3 3.13261 2.94732 3.25979 2.85355 3.35355C2.75979 3.44732 2.63261 3.5 2.5 3.5ZM4.5 3.5C4.36739 3.5 4.24021 3.44732 4.14645 3.35355C4.05268 3.25979 4 3.13261 4 3C4 2.86739 4.05268 2.74021 4.14645 2.64645C4.24021 2.55268 4.36739 2.5 4.5 2.5C4.63261 2.5 4.75979 2.55268 4.85355 2.64645C4.94732 2.74021 5 2.86739 5 3C5 3.13261 4.94732 3.25979 4.85355 3.35355C4.75979 3.44732 4.63261 3.5 4.5 3.5ZM6.5 3.5C6.36739 3.5 6.24021 3.44732 6.14645 3.35355C6.05268 3.25979 6 3.13261 6 3C6 2.86739 6.05268 2.74021 6.14645 2.64645C6.24021 2.55268 6.36739 2.5 6.5 2.5C6.63261 2.5 6.75979 2.55268 6.85355 2.64645C6.94732 2.74021 7 2.86739 7 3C7 3.13261 6.94732 3.25979 6.85355 3.35355C6.75979 3.44732 6.63261 3.5 6.5 3.5ZM7.5 4.5C7.36739 4.5 7.24021 4.44732 7.14645 4.35355C7.05268 4.25979 7 4.13261 7 4C7 3.86739 7.05268 3.74021 7.14645 3.64645C7.24021 3.55268 7.36739 3.5 7.5 3.5C7.63261 3.5 7.75979 3.55268 7.85355 3.64645C7.94732 3.74021 8 3.86739 8 4C8 4.13261 7.94732 4.25979 7.85355 4.35355C7.75979 4.44732 7.63261 4.5 7.5 4.5ZM5.5 4.5C5.36739 4.5 5.24021 4.44732 5.14645 4.35355C5.05268 4.25979 5 4.13261 5 4C5 3.86739 5.05268 3.74021 5.14645 3.64645C5.24021 3.55268 5.36739 3.5 5.5 3.5C5.63261 3.5 5.75979 3.55268 5.85355 3.64645C5.94732 3.74021 6 3.86739 6 4C6 4.13261 5.94732 4.25979 5.85355 4.35355C5.75979 4.44732 5.63261 4.5 5.5 4.5ZM3.5 4.5C3.36739 4.5 3.24021 4.44732 3.14645 4.35355C3.05268 4.25979 3 4.13261 3 4C3 3.86739 3.05268 3.74021 3.14645 3.64645C3.24021 3.55268 3.36739 3.5 3.5 3.5C3.63261 3.5 3.75979 3.55268 3.85355 3.64645C3.94732 3.74021 4 3.86739 4 4C4 4.13261 3.94732 4.25979 3.85355 4.35355C3.75979 4.44732 3.63261 4.5 3.5 4.5ZM1.5 4.5C1.36739 4.5 1.24021 4.44732 1.14645 4.35355C1.05268 4.25979 1 4.13261 1 4C1 3.86739 1.05268 3.74021 1.14645 3.64645C1.24021 3.55268 1.36739 3.5 1.5 3.5C1.63261 3.5 1.75979 3.55268 1.85355 3.64645C1.94732 3.74021 2 3.86739 2 4C2 4.13261 1.94732 4.25979 1.85355 4.35355C1.75979 4.44732 1.63261 4.5 1.5 4.5ZM2.5 5.5C2.36739 5.5 2.24021 5.44732 2.14645 5.35355C2.05268 5.25979 2 5.13261 2 5C2 4.86739 2.05268 4.74021 2.14645 4.64645C2.24021 4.55268 2.36739 4.5 2.5 4.5C2.63261 4.5 2.75979 4.55268 2.85355 4.64645C2.94732 4.74021 3 4.86739 3 5C3 5.13261 2.94732 5.25979 2.85355 5.35355C2.75979 5.44732 2.63261 5.5 2.5 5.5ZM4.5 5.5C4.36739 5.5 4.24021 5.44732 4.14645 5.35355C4.05268 5.25979 4 5.13261 4 5C4 4.86739 4.05268 4.74021 4.14645 4.64645C4.24021 4.55268 4.36739 4.5 4.5 4.5C4.63261 4.5 4.75979 4.55268 4.85355 4.64645C4.94732 4.74021 5 4.86739 5 5C5 5.13261 4.94732 5.25979 4.85355 5.35355C4.75979 5.44732 4.63261 5.5 4.5 5.5ZM6.5 5.5C6.36739 5.5 6.24021 5.44732 6.14645 5.35355C6.05268 5.25979 6 5.13261 6 5C6 4.86739 6.05268 4.74021 6.14645 4.64645C6.24021 4.55268 6.36739 4.5 6.5 4.5C6.63261 4.5 6.75979 4.55268 6.85355 4.64645C6.94732 4.74021 7 4.86739 7 5C7 5.13261 6.94732 5.25979 6.85355 5.35355C6.75979 5.44732 6.63261 5.5 6.5 5.5ZM7.5 6.5C7.36739 6.5 7.24021 6.44732 7.14645 6.35355C7.05268 6.25979 7 6.13261 7 6C7 5.86739 7.05268 5.74021 7.14645 5.64645C7.24021 5.55268 7.36739 5.5 7.5 5.5C7.63261 5.5 7.75979 5.55268 7.85355 5.64645C7.94732 5.74021 8 5.86739 8 6C8 6.13261 7.94732 6.25979 7.85355 6.35355C7.75979 6.44732 7.63261 6.5 7.5 6.5ZM5.5 6.5C5.36739 6.5 5.24021 6.44732 5.14645 6.35355C5.05268 6.25979 5 6.13261 5 6C5 5.86739 5.05268 5.74021 5.14645 5.64645C5.24021 5.55268 5.36739 5.5 5.5 5.5C5.63261 5.5 5.75979 5.55268 5.85355 5.64645C5.94732 5.74021 6 5.86739 6 6C6 6.13261 5.94732 6.25979 5.85355 6.35355C5.75979 6.44732 5.63261 6.5 5.5 6.5ZM3.5 6.5C3.36739 6.5 3.24021 6.44732 3.14645 6.35355C3.05268 6.25979 3 6.13261 3 6C3 5.86739 3.05268 5.74021 3.14645 5.64645C3.24021 5.55268 3.36739 5.5 3.5 5.5C3.63261 5.5 3.75979 5.55268 3.85355 5.64645C3.94732 5.74021 4 5.86739 4 6C4 6.13261 3.94732 6.25979 3.85355 6.35355C3.75979 6.44732 3.63261 6.5 3.5 6.5ZM1.5 6.5C1.36739 6.5 1.24021 6.44732 1.14645 6.35355C1.05268 6.25979 1 6.13261 1 6C1 5.86739 1.05268 5.74021 1.14645 5.64645C1.24021 5.55268 1.36739 5.5 1.5 5.5C1.63261 5.5 1.75979 5.55268 1.85355 5.64645C1.94732 5.74021 2 5.86739 2 6C2 6.13261 1.94732 6.25979 1.85355 6.35355C1.75979 6.44732 1.63261 6.5 1.5 6.5Z" fill="url(#paint3_linear_215_1445)"/>
</g>
<path d="M36.96 12.18C35.992 12.172 35.252 11.92 34.74 11.424C34.228 10.928 33.972 10.208 33.972 9.264V3.6H34.956V9.192C34.956 9.872 35.124 10.384 35.46 10.728C35.796 11.072 36.296 11.244 36.96 11.244C37.624 11.244 38.128 11.072 38.472 10.728C38.816 10.384 38.988 9.88 38.988 9.216V3.6H39.984V9.264C39.976 10.208 39.716 10.928 39.204 11.424C38.684 11.92 37.936 12.172 36.96 12.18ZM45.0213 12.18C43.9893 12.18 43.1813 11.924 42.5973 11.412C42.0053 10.908 41.6613 10.176 41.5653 9.216L42.5493 9.048C42.6293 9.792 42.8733 10.344 43.2813 10.704C43.6893 11.064 44.2733 11.244 45.0333 11.244C45.6253 11.236 46.0933 11.112 46.4373 10.872C46.7813 10.632 46.9573 10.304 46.9653 9.888C46.9813 9.472 46.8133 9.124 46.4613 8.844C46.1173 8.556 45.5133 8.28 44.6493 8.016C43.6573 7.696 42.9613 7.36 42.5613 7.008C42.1533 6.648 41.9573 6.192 41.9733 5.64C41.9893 4.976 42.2413 4.444 42.7293 4.044C43.2093 3.636 43.8533 3.428 44.6613 3.42C45.4613 3.428 46.1333 3.648 46.6773 4.08C47.2133 4.512 47.5573 5.108 47.7093 5.868L46.7373 6.072C46.6013 5.512 46.3573 5.088 46.0053 4.8C45.6533 4.504 45.2013 4.356 44.6493 4.356C44.1293 4.364 43.7213 4.48 43.4253 4.704C43.1213 4.936 42.9653 5.248 42.9573 5.64C42.9493 5.952 43.0933 6.22 43.3893 6.444C43.6933 6.66 44.2213 6.884 44.9733 7.116C46.0533 7.46 46.8213 7.844 47.2773 8.268C47.7413 8.692 47.9653 9.228 47.9493 9.876C47.9333 10.572 47.6613 11.128 47.1333 11.544C46.6053 11.96 45.9013 12.172 45.0213 12.18ZM49.5961 12V3.6H52.2121C53.2921 3.608 54.1601 3.976 54.8161 4.704C55.4801 5.424 55.8201 6.452 55.8361 7.788C55.8201 9.26 55.4801 10.332 54.8161 11.004C54.1441 11.676 53.2521 12.008 52.1401 12H49.5961ZM50.5801 11.064H52.0801C52.9441 11.072 53.6161 10.824 54.0961 10.32C54.5841 9.808 54.8321 8.964 54.8401 7.788C54.8321 6.716 54.5881 5.904 54.1081 5.352C53.6281 4.808 52.9761 4.536 52.1521 4.536H50.5801V11.064Z" fill="white"/>
<defs>
<linearGradient id="paint0_linear_215_1445" x1="1050" y1="0.5" x2="1050" y2="1500.5" gradientUnits="userSpaceOnUse">
<stop stop-color="white"/>
<stop offset="1" stop-color="#F0F0F0"/>
</linearGradient>
<linearGradient id="paint1_linear_215_1445" x1="1050" y1="0.5" x2="1050" y2="1500.5" gradientUnits="userSpaceOnUse">
<stop stop-color="#D02F44"/>
<stop offset="1" stop-color="#B12537"/>
</linearGradient>
<linearGradient id="paint2_linear_215_1445" x1="450" y1="0.5" x2="450" y2="700.5" gradientUnits="userSpaceOnUse">
<stop stop-color="#46467F"/>
<stop offset="1" stop-color="#3C3C6D"/>
</linearGradient>
<linearGradient id="paint3_linear_215_1445" x1="351" y1="1.5" x2="351" y2="501.5" gradientUnits="userSpaceOnUse">
<stop stop-color="white"/>
<stop offset="1" stop-color="#F0F0F0"/>
</linearGradient>
<clipPath id="clip0_215_1445">
<rect width="21" height="15" fill="white" transform="translate(0 0.5)"/>
</clipPath>
</defs>
</svg>
